<svg xmlns="http://www.w3.org/2000/svg" xmlns:xlink="http://www.w3.org/1999/xlink" width="411" zoomAndPan="magnify" viewBox="0 0 308.25 308.249992" height="411" preserveAspectRatio="xMidYMid meet" version="1.0"><defs><g/><clipPath id="cb22fc194c"><path d="M 0 0 L 307.5 0 L 307.5 307.5 L 0 307.5 Z M 0 0 " clip-rule="nonzero"/></clipPath><clipPath id="ca3f95969f"><path d="M 0 0 L 307.21875 0 L 307.21875 307.21875 L 0 307.21875 Z M 0 0 " clip-rule="nonzero"/></clipPath><clipPath id="1d45160f8c"><path d="M 307.21875 61.351562 L 307.21875 245.867188 C 307.21875 262.140625 300.753906 277.746094 289.25 289.25 C 277.746094 300.753906 262.140625 307.21875 245.867188 307.21875 L 61.351562 307.21875 C 45.078125 307.21875 29.476562 300.753906 17.96875 289.25 C 6.464844 277.746094 0 262.140625 0 245.867188 L 0 61.351562 C 0 45.078125 6.464844 29.476562 17.96875 17.96875 C 29.476562 6.464844 45.078125 0 61.351562 0 L 245.867188 0 C 262.140625 0 277.746094 6.464844 289.25 17.96875 C 300.753906 29.476562 307.21875 45.078125 307.21875 61.351562 Z M 307.21875 61.351562 " clip-rule="nonzero"/></clipPath><clipPath id="cc9b835d23"><path d="M 0 0 L 307.21875 0 L 307.21875 307.21875 L 0 307.21875 Z M 0 0 " clip-rule="nonzero"/></clipPath><clipPath id="9782a70e6a"><path d="M 307.21875 61.351562 L 307.21875 245.867188 C 307.21875 262.140625 300.753906 277.746094 289.25 289.25 C 277.746094 300.753906 262.140625 307.21875 245.867188 307.21875 L 61.351562 307.21875 C 45.078125 307.21875 29.476562 300.753906 17.96875 289.25 C 6.464844 277.746094 0 262.140625 0 245.867188 L 0 61.351562 C 0 45.078125 6.464844 29.476562 17.96875 17.96875 C 29.476562 6.464844 45.078125 0 61.351562 0 L 245.867188 0 C 262.140625 0 277.746094 6.464844 289.25 17.96875 C 300.753906 29.476562 307.21875 45.078125 307.21875 61.351562 Z M 307.21875 61.351562 " clip-rule="nonzero"/></clipPath><clipPath id="385831261b"><rect x="0" width="308" y="0" height="308"/></clipPath><clipPath id="1bb1b2d8e2"><path d="M 23.027344 23.78125 L 284.714844 23.78125 L 284.714844 283.441406 L 23.027344 283.441406 Z M 23.027344 23.78125 " clip-rule="nonzero"/></clipPath><clipPath id="419e9a4975"><path d="M 284.191406 67.175781 L 284.191406 240.046875 C 284.191406 251.554688 279.621094 262.589844 271.484375 270.730469 C 263.34375 278.867188 252.308594 283.441406 240.796875 283.441406 L 66.421875 283.441406 C 54.910156 283.441406 43.875 278.867188 35.734375 270.730469 C 27.597656 262.589844 23.027344 251.554688 23.027344 240.046875 L 23.027344 67.175781 C 23.027344 55.664062 27.597656 44.628906 35.734375 36.488281 C 43.875 28.351562 54.910156 23.78125 66.421875 23.78125 L 240.796875 23.78125 C 252.308594 23.78125 263.34375 28.351562 271.484375 36.488281 C 279.621094 44.628906 284.191406 55.664062 284.191406 67.175781 Z M 284.191406 67.175781 " clip-rule="nonzero"/></clipPath><clipPath id="5f1cad69c7"><path d="M 0.0273438 0.78125 L 261 0.78125 L 261 260.441406 L 0.0273438 260.441406 Z M 0.0273438 0.78125 " clip-rule="nonzero"/></clipPath><clipPath id="1c3bf812d0"><path d="M 261.191406 44.175781 L 261.191406 217.046875 C 261.191406 228.554688 256.621094 239.589844 248.484375 247.730469 C 240.34375 255.867188 229.308594 260.441406 217.796875 260.441406 L 43.421875 260.441406 C 31.910156 260.441406 20.875 255.867188 12.734375 247.730469 C 4.597656 239.589844 0.0273438 228.554688 0.0273438 217.046875 L 0.0273438 44.175781 C 0.0273438 32.664062 4.597656 21.628906 12.734375 13.488281 C 20.875 5.351562 31.910156 0.78125 43.421875 0.78125 L 217.796875 0.78125 C 229.308594 0.78125 240.34375 5.351562 248.484375 13.488281 C 256.621094 21.628906 261.191406 32.664062 261.191406 44.175781 Z M 261.191406 44.175781 " clip-rule="nonzero"/></clipPath><clipPath id="b13df354e5"><rect x="0" width="262" y="0" height="261"/></clipPath><clipPath id="f8b6c62557"><path d="M 38.167969 44.804688 L 148.671875 44.804688 L 148.671875 153.609375 L 38.167969 153.609375 Z M 38.167969 44.804688 " clip-rule="nonzero"/></clipPath><clipPath id="a0e4e0c481"><path d="M 148.4375 66.503906 L 148.4375 131.910156 C 148.4375 143.894531 138.722656 153.609375 126.742188 153.609375 L 59.867188 153.609375 C 47.882812 153.609375 38.167969 143.894531 38.167969 131.910156 L 38.167969 66.503906 C 38.167969 54.519531 47.882812 44.804688 59.867188 44.804688 L 126.742188 44.804688 C 138.722656 44.804688 148.4375 54.519531 148.4375 66.503906 Z M 148.4375 66.503906 " clip-rule="nonzero"/></clipPath><clipPath id="73a182ebd1"><path d="M 0.167969 0.804688 L 110.4375 0.804688 L 110.4375 109.609375 L 0.167969 109.609375 Z M 0.167969 0.804688 " clip-rule="nonzero"/></clipPath><clipPath id="bfae8c4331"><path d="M 110.4375 22.503906 L 110.4375 87.910156 C 110.4375 99.894531 100.722656 109.609375 88.742188 109.609375 L 21.867188 109.609375 C 9.882812 109.609375 0.167969 99.894531 0.167969 87.910156 L 0.167969 22.503906 C 0.167969 10.519531 9.882812 0.804688 21.867188 0.804688 L 88.742188 0.804688 C 100.722656 0.804688 110.4375 10.519531 110.4375 22.503906 Z M 110.4375 22.503906 " clip-rule="nonzero"/></clipPath><clipPath id="31f2777e09"><rect x="0" width="111" y="0" height="110"/></clipPath><clipPath id="83ec3cb73f"><path d="M 166.503906 44.804688 L 269.125 44.804688 L 269.125 80.84375 L 166.503906 80.84375 Z M 166.503906 44.804688 " clip-rule="nonzero"/></clipPath><clipPath id="e115e1847e"><path d="M 269.050781 62.824219 C 269.050781 72.777344 260.984375 80.84375 251.03125 80.84375 L 184.519531 80.84375 C 174.570312 80.84375 166.503906 72.777344 166.503906 62.824219 C 166.503906 52.875 174.570312 44.804688 184.519531 44.804688 L 251.03125 44.804688 C 260.984375 44.804688 269.050781 52.875 269.050781 62.824219 Z M 269.050781 62.824219 " clip-rule="nonzero"/></clipPath><clipPath id="df90f1feed"><path d="M 0.503906 0.804688 L 103 0.804688 L 103 36.84375 L 0.503906 36.84375 Z M 0.503906 0.804688 " clip-rule="nonzero"/></clipPath><clipPath id="b4e790229c"><path d="M 103.050781 18.824219 C 103.050781 28.777344 94.984375 36.84375 85.03125 36.84375 L 18.519531 36.84375 C 8.570312 36.84375 0.503906 28.777344 0.503906 18.824219 C 0.503906 8.875 8.570312 0.804688 18.519531 0.804688 L 85.03125 0.804688 C 94.984375 0.804688 103.050781 8.875 103.050781 18.824219 Z M 103.050781 18.824219 " clip-rule="nonzero"/></clipPath><clipPath id="f46b73adf7"><rect x="0" width="104" y="0" height="37"/></clipPath><clipPath id="e7d50ff128"><path d="M 166.503906 91.476562 L 269.0625 91.476562 L 269.0625 106.9375 L 166.503906 106.9375 Z M 166.503906 91.476562 " clip-rule="nonzero"/></clipPath><clipPath id="67b0d746b6"><path d="M 269.050781 99.207031 C 269.050781 103.476562 265.589844 106.9375 261.320312 106.9375 L 174.234375 106.9375 C 169.964844 106.9375 166.503906 103.476562 166.503906 99.207031 C 166.503906 94.9375 169.964844 91.476562 174.234375 91.476562 L 261.320312 91.476562 C 265.589844 91.476562 269.050781 94.9375 269.050781 99.207031 Z M 269.050781 99.207031 " clip-rule="nonzero"/></clipPath><clipPath id="177a4dd9b5"><path d="M 0.503906 0.476562 L 103.0625 0.476562 L 103.0625 15.9375 L 0.503906 15.9375 Z M 0.503906 0.476562 " clip-rule="nonzero"/></clipPath><clipPath id="b3beb01c32"><path d="M 103.050781 8.207031 C 103.050781 12.476562 99.589844 15.9375 95.320312 15.9375 L 8.234375 15.9375 C 3.964844 15.9375 0.503906 12.476562 0.503906 8.207031 C 0.503906 3.9375 3.964844 0.476562 8.234375 0.476562 L 95.320312 0.476562 C 99.589844 0.476562 103.050781 3.9375 103.050781 8.207031 Z M 103.050781 8.207031 " clip-rule="nonzero"/></clipPath><clipPath id="55398bfb85"><rect x="0" width="104" y="0" height="16"/></clipPath><clipPath id="1c72476d1b"><path d="M 153.609375 231.019531 L 269.105469 231.019531 L 269.105469 263.332031 L 153.609375 263.332031 Z M 153.609375 231.019531 " clip-rule="nonzero"/></clipPath><clipPath id="b72bfa78d0"><path d="M 269.050781 247.175781 C 269.050781 251.460938 267.347656 255.570312 264.316406 258.597656 C 261.289062 261.628906 257.179688 263.332031 252.894531 263.332031 L 169.765625 263.332031 C 165.480469 263.332031 161.371094 261.628906 158.34375 258.597656 C 155.3125 255.570312 153.609375 251.460938 153.609375 247.175781 C 153.609375 242.890625 155.3125 238.78125 158.34375 235.75 C 161.371094 232.71875 165.480469 231.019531 169.765625 231.019531 L 252.894531 231.019531 C 257.179688 231.019531 261.289062 232.71875 264.316406 235.75 C 267.347656 238.78125 269.050781 242.890625 269.050781 247.175781 Z M 269.050781 247.175781 " clip-rule="nonzero"/></clipPath><clipPath id="1da5a18ea4"><path d="M 0.609375 0.0195312 L 116.105469 0.0195312 L 116.105469 32.332031 L 0.609375 32.332031 Z M 0.609375 0.0195312 " clip-rule="nonzero"/></clipPath><clipPath id="d4b5987f31"><path d="M 116.050781 16.175781 C 116.050781 20.460938 114.347656 24.570312 111.316406 27.597656 C 108.289062 30.628906 104.179688 32.332031 99.894531 32.332031 L 16.765625 32.332031 C 12.480469 32.332031 8.371094 30.628906 5.34375 27.597656 C 2.3125 24.570312 0.609375 20.460938 0.609375 16.175781 C 0.609375 11.890625 2.3125 7.78125 5.34375 4.75 C 8.371094 1.71875 12.480469 0.0195312 16.765625 0.0195312 L 99.894531 0.0195312 C 104.179688 0.0195312 108.289062 1.71875 111.316406 4.75 C 114.347656 7.78125 116.050781 11.890625 116.050781 16.175781 Z M 116.050781 16.175781 " clip-rule="nonzero"/></clipPath><clipPath id="c49d1df27a"><rect x="0" width="117" y="0" height="33"/></clipPath><clipPath id="ec3293de91"><path d="M 90.308594 177.203125 L 122.0625 177.203125 L 122.0625 207.421875 L 90.308594 207.421875 Z M 90.308594 177.203125 " clip-rule="nonzero"/></clipPath><clipPath id="4b838992c8"><path d="M 106.160156 177.203125 L 109.902344 188.746094 L 122.011719 188.746094 L 112.214844 195.878906 L 115.957031 207.421875 L 106.160156 200.289062 L 96.363281 207.421875 L 100.105469 195.878906 L 90.308594 188.746094 L 102.417969 188.746094 Z M 106.160156 177.203125 " clip-rule="nonzero"/></clipPath><clipPath id="5c0105bae1"><path d="M 0.308594 0.203125 L 32.0625 0.203125 L 32.0625 30.421875 L 0.308594 30.421875 Z M 0.308594 0.203125 " clip-rule="nonzero"/></clipPath><clipPath id="5d3ad40ceb"><path d="M 16.160156 0.203125 L 19.902344 11.746094 L 32.011719 11.746094 L 22.214844 18.878906 L 25.957031 30.421875 L 16.160156 23.289062 L 6.363281 30.421875 L 10.105469 18.878906 L 0.308594 11.746094 L 12.417969 11.746094 Z M 16.160156 0.203125 " clip-rule="nonzero"/></clipPath><clipPath id="021db18a51"><rect x="0" width="33" y="0" height="31"/></clipPath><clipPath id="b352aac099"><path d="M 126.882812 177.203125 L 158.636719 177.203125 L 158.636719 207.421875 L 126.882812 207.421875 Z M 126.882812 177.203125 " clip-rule="nonzero"/></clipPath><clipPath id="1257b9488f"><path d="M 142.734375 177.203125 L 146.480469 188.746094 L 158.589844 188.746094 L 148.792969 195.878906 L 152.535156 207.421875 L 142.734375 200.289062 L 132.9375 207.421875 L 136.679688 195.878906 L 126.882812 188.746094 L 138.992188 188.746094 Z M 142.734375 177.203125 " clip-rule="nonzero"/></clipPath><clipPath id="a5ea7b26f8"><path d="M 0.882812 0.203125 L 32.636719 0.203125 L 32.636719 30.421875 L 0.882812 30.421875 Z M 0.882812 0.203125 " clip-rule="nonzero"/></clipPath><clipPath id="a3562304ee"><path d="M 16.734375 0.203125 L 20.480469 11.746094 L 32.589844 11.746094 L 22.792969 18.878906 L 26.535156 30.421875 L 16.734375 23.289062 L 6.9375 30.421875 L 10.679688 18.878906 L 0.882812 11.746094 L 12.992188 11.746094 Z M 16.734375 0.203125 " clip-rule="nonzero"/></clipPath><clipPath id="e5eb224be7"><rect x="0" width="33" y="0" height="31"/></clipPath><clipPath id="98cf4930ba"><path d="M 163.828125 177.203125 L 195.582031 177.203125 L 195.582031 207.421875 L 163.828125 207.421875 Z M 163.828125 177.203125 " clip-rule="nonzero"/></clipPath><clipPath id="97d7cb78a8"><path d="M 179.679688 177.203125 L 183.421875 188.746094 L 195.53125 188.746094 L 185.734375 195.878906 L 189.476562 207.421875 L 179.679688 200.289062 L 169.882812 207.421875 L 173.625 195.878906 L 163.828125 188.746094 L 175.9375 188.746094 Z M 179.679688 177.203125 " clip-rule="nonzero"/></clipPath><clipPath id="2e31f996f4"><path d="M 0.828125 0.203125 L 32.582031 0.203125 L 32.582031 30.421875 L 0.828125 30.421875 Z M 0.828125 0.203125 " clip-rule="nonzero"/></clipPath><clipPath id="caef9ce6d9"><path d="M 16.679688 0.203125 L 20.421875 11.746094 L 32.53125 11.746094 L 22.734375 18.878906 L 26.476562 30.421875 L 16.679688 23.289062 L 6.882812 30.421875 L 10.625 18.878906 L 0.828125 11.746094 L 12.9375 11.746094 Z M 16.679688 0.203125 " clip-rule="nonzero"/></clipPath><clipPath id="e734803c59"><rect x="0" width="33" y="0" height="31"/></clipPath><clipPath id="782c8f2213"><path d="M 200.402344 177.203125 L 232.15625 177.203125 L 232.15625 207.421875 L 200.402344 207.421875 Z M 200.402344 177.203125 " clip-rule="nonzero"/></clipPath><clipPath id="df09e42f5f"><path d="M 216.253906 177.203125 L 219.996094 188.746094 L 232.109375 188.746094 L 222.308594 195.878906 L 226.050781 207.421875 L 216.253906 200.289062 L 206.457031 207.421875 L 210.199219 195.878906 L 200.402344 188.746094 L 212.511719 188.746094 Z M 216.253906 177.203125 " clip-rule="nonzero"/></clipPath><clipPath id="27014549be"><path d="M 0.402344 0.203125 L 32.15625 0.203125 L 32.15625 30.421875 L 0.402344 30.421875 Z M 0.402344 0.203125 " clip-rule="nonzero"/></clipPath><clipPath id="1986efff29"><path d="M 16.253906 0.203125 L 19.996094 11.746094 L 32.109375 11.746094 L 22.308594 18.878906 L 26.050781 30.421875 L 16.253906 23.289062 L 6.457031 30.421875 L 10.199219 18.878906 L 0.402344 11.746094 L 12.511719 11.746094 Z M 16.253906 0.203125 " clip-rule="nonzero"/></clipPath><clipPath id="00df040474"><rect x="0" width="33" y="0" height="31"/></clipPath><clipPath id="3ce90f8671"><path d="M 237.34375 177.203125 L 269.097656 177.203125 L 269.097656 207.421875 L 237.34375 207.421875 Z M 237.34375 177.203125 " clip-rule="nonzero"/></clipPath><clipPath id="21a6c52e6d"><path d="M 253.199219 177.203125 L 256.941406 188.746094 L 269.050781 188.746094 L 259.253906 195.878906 L 262.996094 207.421875 L 253.199219 200.289062 L 243.398438 207.421875 L 247.140625 195.878906 L 237.34375 188.746094 L 249.457031 188.746094 Z M 253.199219 177.203125 " clip-rule="nonzero"/></clipPath><clipPath id="7682b7b880"><path d="M 0.34375 0.203125 L 32.097656 0.203125 L 32.097656 30.421875 L 0.34375 30.421875 Z M 0.34375 0.203125 " clip-rule="nonzero"/></clipPath><clipPath id="4a5af85f82"><path d="M 16.199219 0.203125 L 19.941406 11.746094 L 32.050781 11.746094 L 22.253906 18.878906 L 25.996094 30.421875 L 16.199219 23.289062 L 6.398438 30.421875 L 10.140625 18.878906 L 0.34375 11.746094 L 12.457031 11.746094 Z M 16.199219 0.203125 " clip-rule="nonzero"/></clipPath><clipPath id="04d5cd4163"><rect x="0" width="33" y="0" height="31"/></clipPath><clipPath id="a073bf8a74"><path d="M 166.503906 114.8125 L 269.0625 114.8125 L 269.0625 130.273438 L 166.503906 130.273438 Z M 166.503906 114.8125 " clip-rule="nonzero"/></clipPath><clipPath id="e8379f506c"><path d="M 269.050781 122.542969 C 269.050781 126.8125 265.589844 130.273438 261.320312 130.273438 L 174.234375 130.273438 C 169.964844 130.273438 166.503906 126.8125 166.503906 122.542969 C 166.503906 118.273438 169.964844 114.8125 174.234375 114.8125 L 261.320312 114.8125 C 265.589844 114.8125 269.050781 118.273438 269.050781 122.542969 Z M 269.050781 122.542969 " clip-rule="nonzero"/></clipPath><clipPath id="d758fc9d15"><path d="M 0.503906 0.8125 L 103.0625 0.8125 L 103.0625 16.273438 L 0.503906 16.273438 Z M 0.503906 0.8125 " clip-rule="nonzero"/></clipPath><clipPath id="0a504c74ff"><path d="M 103.050781 8.542969 C 103.050781 12.8125 99.589844 16.273438 95.320312 16.273438 L 8.234375 16.273438 C 3.964844 16.273438 0.503906 12.8125 0.503906 8.542969 C 0.503906 4.273438 3.964844 0.8125 8.234375 0.8125 L 95.320312 0.8125 C 99.589844 0.8125 103.050781 4.273438 103.050781 8.542969 Z M 103.050781 8.542969 " clip-rule="nonzero"/></clipPath><clipPath id="f8be8af136"><rect x="0" width="104" y="0" height="17"/></clipPath><clipPath id="55801f1aef"><path d="M 166.503906 138.148438 L 269.0625 138.148438 L 269.0625 153.609375 L 166.503906 153.609375 Z M 166.503906 138.148438 " clip-rule="nonzero"/></clipPath><clipPath id="8f50580ea5"><path d="M 269.050781 145.878906 C 269.050781 150.148438 265.589844 153.609375 261.320312 153.609375 L 174.234375 153.609375 C 169.964844 153.609375 166.503906 150.148438 166.503906 145.878906 C 166.503906 141.609375 169.964844 138.148438 174.234375 138.148438 L 261.320312 138.148438 C 265.589844 138.148438 269.050781 141.609375 269.050781 145.878906 Z M 269.050781 145.878906 " clip-rule="nonzero"/></clipPath><clipPath id="d58f79f444"><path d="M 0.503906 0.148438 L 103.0625 0.148438 L 103.0625 15.609375 L 0.503906 15.609375 Z M 0.503906 0.148438 " clip-rule="nonzero"/></clipPath><clipPath id="ad497e23b3"><path d="M 103.050781 7.878906 C 103.050781 12.148438 99.589844 15.609375 95.320312 15.609375 L 8.234375 15.609375 C 3.964844 15.609375 0.503906 12.148438 0.503906 7.878906 C 0.503906 3.609375 3.964844 0.148438 8.234375 0.148438 L 95.320312 0.148438 C 99.589844 0.148438 103.050781 3.609375 103.050781 7.878906 Z M 103.050781 7.878906 " clip-rule="nonzero"/></clipPath><clipPath id="1fcb47ced9"><rect x="0" width="104" y="0" height="16"/></clipPath></defs><g clip-path="url(#cb22fc194c)"><path fill="#ffffff" d="M 0 0 L 307.5 0 L 307.5 307.5 L 0 307.5 Z M 0 0 " fill-opacity="1" fill-rule="nonzero"/></g><g clip-path="url(#ca3f95969f)"><g clip-path="url(#1d45160f8c)"><g transform="matrix(1, 0, 0, 1, -0, 0)"><g clip-path="url(#385831261b)"><g clip-path="url(#cc9b835d23)"><g clip-path="url(#9782a70e6a)"><path fill="#2a3a5f" d="M 0 0 L 307.21875 0 L 307.21875 307.21875 L 0 307.21875 Z M 0 0 " fill-opacity="1" fill-rule="nonzero"/></g></g></g></g></g></g><g clip-path="url(#1bb1b2d8e2)"><g clip-path="url(#419e9a4975)"><g transform="matrix(1, 0, 0, 1, 23, 23)"><g clip-path="url(#b13df354e5)"><g clip-path="url(#5f1cad69c7)"><g clip-path="url(#1c3bf812d0)"><path fill="#fcf9f4" d="M 0.0273438 0.78125 L 260.699219 0.78125 L 260.699219 260.441406 L 0.0273438 260.441406 Z M 0.0273438 0.78125 " fill-opacity="1" fill-rule="nonzero"/></g></g></g></g></g></g><g clip-path="url(#f8b6c62557)"><g clip-path="url(#a0e4e0c481)"><g transform="matrix(1, 0, 0, 1, 38, 44)"><g clip-path="url(#31f2777e09)"><g clip-path="url(#73a182ebd1)"><g clip-path="url(#bfae8c4331)"><path fill="#d9833d" d="M 0.167969 0.804688 L 110.246094 0.804688 L 110.246094 109.609375 L 0.167969 109.609375 Z M 0.167969 0.804688 " fill-opacity="1" fill-rule="nonzero"/></g></g></g></g></g></g><g clip-path="url(#83ec3cb73f)"><g clip-path="url(#e115e1847e)"><g transform="matrix(1, 0, 0, 1, 166, 44)"><g clip-path="url(#f46b73adf7)"><g clip-path="url(#df90f1feed)"><g clip-path="url(#b4e790229c)"><path fill="#2a3a5f" d="M 0.503906 0.804688 L 102.984375 0.804688 L 102.984375 36.84375 L 0.503906 36.84375 Z M 0.503906 0.804688 " fill-opacity="1" fill-rule="nonzero"/></g></g></g></g></g></g><g clip-path="url(#e7d50ff128)"><g clip-path="url(#67b0d746b6)"><g transform="matrix(1, 0, 0, 1, 166, 91)"><g clip-path="url(#55398bfb85)"><g clip-path="url(#177a4dd9b5)"><g clip-path="url(#b3beb01c32)"><path fill="#7f889a" d="M 0.503906 0.476562 L 103.0625 0.476562 L 103.0625 15.9375 L 0.503906 15.9375 Z M 0.503906 0.476562 " fill-opacity="1" fill-rule="nonzero"/></g></g></g></g></g></g><g clip-path="url(#1c72476d1b)"><g clip-path="url(#b72bfa78d0)"><g transform="matrix(1, 0, 0, 1, 153, 231)"><g clip-path="url(#c49d1df27a)"><g clip-path="url(#1da5a18ea4)"><g clip-path="url(#d4b5987f31)"><path fill="#ffbd59" d="M 0.609375 0.0195312 L 116.105469 0.0195312 L 116.105469 32.332031 L 0.609375 32.332031 Z M 0.609375 0.0195312 " fill-opacity="1" fill-rule="nonzero"/></g></g></g></g></g></g><g clip-path="url(#ec3293de91)"><g clip-path="url(#4b838992c8)"><g transform="matrix(1, 0, 0, 1, 90, 177)"><g clip-path="url(#021db18a51)"><g clip-path="url(#5c0105bae1)"><g clip-path="url(#5d3ad40ceb)"><path fill="#ffbd59" d="M 0.308594 0.203125 L 32.0625 0.203125 L 32.0625 30.421875 L 0.308594 30.421875 Z M 0.308594 0.203125 " fill-opacity="1" fill-rule="nonzero"/></g></g></g></g></g></g><g clip-path="url(#b352aac099)"><g clip-path="url(#1257b9488f)"><g transform="matrix(1, 0, 0, 1, 126, 177)"><g clip-path="url(#e5eb224be7)"><g clip-path="url(#a5ea7b26f8)"><g clip-path="url(#a3562304ee)"><path fill="#ffbd59" d="M 0.882812 0.203125 L 32.636719 0.203125 L 32.636719 30.421875 L 0.882812 30.421875 Z M 0.882812 0.203125 " fill-opacity="1" fill-rule="nonzero"/></g></g></g></g></g></g><g clip-path="url(#98cf4930ba)"><g clip-path="url(#97d7cb78a8)"><g transform="matrix(1, 0, 0, 1, 163, 177)"><g clip-path="url(#e734803c59)"><g clip-path="url(#2e31f996f4)"><g clip-path="url(#caef9ce6d9)"><path fill="#ffbd59" d="M 0.828125 0.203125 L 32.582031 0.203125 L 32.582031 30.421875 L 0.828125 30.421875 Z M 0.828125 0.203125 " fill-opacity="1" fill-rule="nonzero"/></g></g></g></g></g></g><g clip-path="url(#782c8f2213)"><g clip-path="url(#df09e42f5f)"><g transform="matrix(1, 0, 0, 1, 200, 177)"><g clip-path="url(#00df040474)"><g clip-path="url(#27014549be)"><g clip-path="url(#1986efff29)"><path fill="#ffbd59" d="M 0.402344 0.203125 L 32.15625 0.203125 L 32.15625 30.421875 L 0.402344 30.421875 Z M 0.402344 0.203125 " fill-opacity="1" fill-rule="nonzero"/></g></g></g></g></g></g><g clip-path="url(#3ce90f8671)"><g clip-path="url(#21a6c52e6d)"><g transform="matrix(1, 0, 0, 1, 237, 177)"><g clip-path="url(#04d5cd4163)"><g clip-path="url(#7682b7b880)"><g clip-path="url(#4a5af85f82)"><path fill="#814e28" d="M 0.34375 0.203125 L 32.097656 0.203125 L 32.097656 30.421875 L 0.34375 30.421875 Z M 0.34375 0.203125 " fill-opacity="1" fill-rule="nonzero"/></g></g></g></g></g></g><g fill="#000000" fill-opacity="1"><g transform="translate(38.168771, 203.910421)"><g><path d="M 14.265625 0 L 11.71875 0 L 11.71875 -5.4375 L 1.046875 -5.4375 L 1.046875 -7.59375 L 11.09375 -22.78125 L 14.265625 -22.78125 L 14.265625 -7.59375 L 18.203125 -7.59375 L 18.203125 -5.4375 L 14.265625 -5.4375 Z M 4.1875 -7.921875 L 4.328125 -7.59375 L 11.71875 -7.59375 L 11.71875 -19.078125 L 11.359375 -19.140625 Z M 4.1875 -7.921875 "/></g></g></g><g fill="#000000" fill-opacity="1"><g transform="translate(57.086825, 203.910421)"><g><path d="M 4.1875 0.15625 C 3.59375 0.15625 3.125 -0.0078125 2.78125 -0.34375 C 2.445312 -0.675781 2.28125 -1.117188 2.28125 -1.671875 C 2.28125 -2.210938 2.445312 -2.65625 2.78125 -3 C 3.125 -3.34375 3.59375 -3.515625 4.1875 -3.515625 C 4.789062 -3.515625 5.265625 -3.347656 5.609375 -3.015625 C 5.953125 -2.691406 6.125 -2.253906 6.125 -1.703125 C 6.125 -1.148438 5.945312 -0.703125 5.59375 -0.359375 C 5.25 -0.015625 4.78125 0.15625 4.1875 0.15625 Z M 4.1875 0.15625 "/></g></g></g><g fill="#000000" fill-opacity="1"><g transform="translate(65.096591, 203.910421)"><g><path d="M 9.625 0.328125 C 7.96875 0.328125 6.546875 0.0625 5.359375 -0.46875 C 4.179688 -1.007812 3.285156 -1.773438 2.671875 -2.765625 C 2.066406 -3.753906 1.765625 -4.925781 1.765625 -6.28125 C 1.765625 -7.726562 2.117188 -8.929688 2.828125 -9.890625 C 3.546875 -10.859375 4.609375 -11.617188 6.015625 -12.171875 L 6.015625 -12.5 C 5.023438 -13.09375 4.265625 -13.78125 3.734375 -14.5625 C 3.203125 -15.351562 2.9375 -16.28125 2.9375 -17.34375 C 2.9375 -18.507812 3.207031 -19.523438 3.75 -20.390625 C 4.300781 -21.265625 5.082031 -21.9375 6.09375 -22.40625 C 7.113281 -22.875 8.289062 -23.109375 9.625 -23.109375 C 10.96875 -23.109375 12.148438 -22.875 13.171875 -22.40625 C 14.191406 -21.9375 14.972656 -21.265625 15.515625 -20.390625 C 16.066406 -19.523438 16.34375 -18.507812 16.34375 -17.34375 C 16.34375 -16.28125 16.070312 -15.351562 15.53125 -14.5625 C 15 -13.78125 14.238281 -13.09375 13.25 -12.5 L 13.25 -12.171875 C 14.664062 -11.617188 15.726562 -10.859375 16.4375 -9.890625 C 17.15625 -8.929688 17.515625 -7.726562 17.515625 -6.28125 C 17.515625 -4.914062 17.207031 -3.738281 16.59375 -2.75 C 15.988281 -1.769531 15.09375 -1.007812 13.90625 -0.46875 C 12.71875 0.0625 11.289062 0.328125 9.625 0.328125 Z M 9.625 -13.21875 C 10.4375 -13.21875 11.148438 -13.367188 11.765625 -13.671875 C 12.390625 -13.984375 12.875 -14.425781 13.21875 -15 C 13.570312 -15.582031 13.75 -16.257812 13.75 -17.03125 C 13.75 -17.820312 13.570312 -18.507812 13.21875 -19.09375 C 12.875 -19.675781 12.390625 -20.125 11.765625 -20.4375 C 11.140625 -20.75 10.425781 -20.90625 9.625 -20.90625 C 8.375 -20.90625 7.378906 -20.554688 6.640625 -19.859375 C 5.898438 -19.171875 5.53125 -18.226562 5.53125 -17.03125 C 5.53125 -15.851562 5.898438 -14.921875 6.640625 -14.234375 C 7.378906 -13.554688 8.375 -13.21875 9.625 -13.21875 Z M 9.625 -2.03125 C 11.269531 -2.03125 12.53125 -2.414062 13.40625 -3.1875 C 14.28125 -3.96875 14.71875 -5.054688 14.71875 -6.453125 C 14.71875 -7.835938 14.28125 -8.921875 13.40625 -9.703125 C 12.53125 -10.484375 11.269531 -10.875 9.625 -10.875 C 7.988281 -10.875 6.734375 -10.484375 5.859375 -9.703125 C 4.984375 -8.921875 4.546875 -7.835938 4.546875 -6.453125 C 4.546875 -5.054688 4.984375 -3.96875 5.859375 -3.1875 C 6.734375 -2.414062 7.988281 -2.03125 9.625 -2.03125 Z M 9.625 -2.03125 "/></g></g></g><g clip-path="url(#a073bf8a74)"><g clip-path="url(#e8379f506c)"><g transform="matrix(1, 0, 0, 1, 166, 114)"><g clip-path="url(#f8be8af136)"><g clip-path="url(#d758fc9d15)"><g clip-path="url(#0a504c74ff)"><path fill="#7f889a" d="M 0.503906 0.8125 L 103.0625 0.8125 L 103.0625 16.273438 L 0.503906 16.273438 Z M 0.503906 0.8125 " fill-opacity="1" fill-rule="nonzero"/></g></g></g></g></g></g><g clip-path="url(#55801f1aef)"><g clip-path="url(#8f50580ea5)"><g transform="matrix(1, 0, 0, 1, 166, 138)"><g clip-path="url(#1fcb47ced9)"><g clip-path="url(#d58f79f444)"><g clip-path="url(#ad497e23b3)"><path fill="#7f889a" d="M 0.503906 0.148438 L 103.0625 0.148438 L 103.0625 15.609375 L 0.503906 15.609375 Z M 0.503906 0.148438 " fill-opacity="1" fill-rule="nonzero"/></g></g></g></g></g></g></svg>